<?xml version="1.0" encoding="UTF-8"?>
<svg width="200" height="200" viewBox="0 0 200 200" xmlns="http://www.w3.org/2000/svg">
  <!-- Фон календаря -->
  <rect x="30" y="40" width="140" height="120" rx="10" fill="#f5f5f5" stroke="#ddd" stroke-width="2"/>
  
  <!-- Верх календаря -->
  <rect x="30" y="40" width="140" height="30" rx="8" fill="#4CAF50" opacity="0.8"/>
  
  <!-- Линии календаря -->
  <line x1="60" y1="70" x2="60" y2="160" stroke="#ddd" stroke-width="1"/>
  <line x1="90" y1="70" x2="90" y2="160" stroke="#ddd" stroke-width="1"/>
  <line x1="120" y1="70" x2="120" y2="160" stroke="#ddd" stroke-width="1"/>
  <line x1="150" y1="70" x2="150" y2="160" stroke="#ddd" stroke-width="1"/>
  
  <line x1="30" y1="100" x2="170" y2="100" stroke="#ddd" stroke-width="1"/>
  <line x1="30" y1="130" x2="170" y2="130" stroke="#ddd" stroke-width="1"/>
  
  <!-- Галочки для привычек -->
  <circle cx="45" cy="85" r="8" fill="#4CAF50" opacity="0.6"/>
  <path d="M40,85 L43,88 L50,81" stroke="white" stroke-width="2" fill="none"/>
  
  <circle cx="75" cy="85" r="8" fill="#4CAF50" opacity="0.6"/>
  <path d="M70,85 L73,88 L80,81" stroke="white" stroke-width="2" fill="none"/>
  
  <circle cx="45" cy="115" r="8" fill="#4CAF50" opacity="0.6"/>
  <path d="M40,115 L43,118 L50,111" stroke="white" stroke-width="2" fill="none"/>
  
  <circle cx="135" cy="115" r="8" fill="#4CAF50" opacity="0.6"/>
  <path d="M130,115 L133,118 L140,111" stroke="white" stroke-width="2" fill="none"/>
  
  <circle cx="165" cy="145" r="8" fill="#4CAF50" opacity="0.6"/>
  <path d="M160,145 L163,148 L170,141" stroke="white" stroke-width="2" fill="none"/>
  
  <!-- Иконка плюса -->
  <circle cx="100" cy="180" r="15" fill="#4CAF50"/>
  <line x1="100" y1="173" x2="100" y2="187" stroke="white" stroke-width="3"/>
  <line x1="93" y1="180" x2="107" y2="180" stroke="white" stroke-width="3"/>
</svg>
